<svg width="605" height="178" viewBox="0 0 605 178" fill="none" xmlns="http://www.w3.org/2000/svg">
<path d="M73.8596 93.4896H93.3296C93.4296 99.3796 94.0496 105.04 95.1296 110.12C90.5396 111.29 86.2696 113 82.5796 115.18C77.4696 109.31 74.2496 101.76 73.8496 93.4896H73.8596ZM82.5896 68.3495C86.2696 70.5395 90.5496 72.2495 95.1396 73.4095C94.0596 78.4895 93.4396 84.1496 93.3396 90.0396H73.8696C74.2696 81.7596 77.4896 74.2195 82.5996 68.3495H82.5896ZM145.2 90.0396H125.73C125.63 84.1396 125.01 78.4796 123.93 73.3996C128.55 72.2296 132.85 70.5095 136.48 68.3495C141.59 74.2195 144.81 81.7596 145.21 90.0396H145.2ZM96.7796 90.0396C96.8796 84.3896 97.4696 78.9895 98.4996 74.1595C102.08 74.8395 105.79 75.1996 109.53 75.1996C113.27 75.1996 116.96 74.8296 120.56 74.1396C121.59 78.9796 122.18 84.3796 122.28 90.0296H96.7796V90.0396ZM122.28 93.4896C122.18 99.1396 121.59 104.55 120.56 109.38C116.96 108.69 113.23 108.32 109.53 108.32C105.83 108.32 102.08 108.68 98.4996 109.36C97.4696 104.53 96.8796 99.1196 96.7796 93.4796H122.28V93.4896ZM123.11 70.0296C122.6 68.1396 122.03 66.3396 121.38 64.6796C120.13 61.4596 118.68 58.8296 117.07 56.8696C123.54 58.2696 129.36 61.4196 134.01 65.7996C130.85 67.5696 127.1 69.0096 123.11 70.0296ZM118.17 65.9196C118.76 67.4296 119.28 69.0596 119.75 70.7796C116.39 71.4196 112.93 71.7596 109.54 71.7596C106.15 71.7596 102.63 71.4296 99.3196 70.8096C99.7896 69.0796 100.32 67.4396 100.91 65.9196C103.34 59.6496 106.48 56.0596 109.55 56.0596C112.61 56.0596 115.76 59.6596 118.19 65.9196H118.17ZM97.6796 64.6696C97.0296 66.3496 96.4496 68.1596 95.9396 70.0596C91.9796 69.0496 88.2896 67.5996 85.0496 65.7796C89.6996 61.3996 95.5196 58.2495 101.98 56.8495C100.38 58.8195 98.9196 61.4395 97.6696 64.6595L97.6796 64.6696ZM95.9396 113.46C96.4496 115.37 97.0296 117.18 97.6796 118.85C98.9296 122.07 100.38 124.7 101.99 126.66C95.5296 125.26 89.7096 122.11 85.0596 117.73C88.2896 115.91 91.9896 114.46 95.9496 113.45L95.9396 113.46ZM100.89 117.61C100.3 116.09 99.7696 114.45 99.2996 112.72C102.61 112.1 106.05 111.77 109.52 111.77C112.99 111.77 116.38 112.11 119.73 112.75C119.26 114.47 118.74 116.1 118.15 117.61C115.72 123.88 112.58 127.47 109.51 127.47C106.45 127.47 103.3 123.88 100.87 117.61H100.89ZM121.38 118.86C122.02 117.19 122.6 115.4 123.11 113.51C127.11 114.53 130.85 115.97 134.01 117.74C129.36 122.12 123.54 125.28 117.07 126.67C118.67 124.7 120.13 122.08 121.38 118.86ZM123.92 110.13C125 105.05 125.62 99.3796 125.72 93.4896H145.19C144.79 101.77 141.57 109.31 136.46 115.18C132.83 113.02 128.53 111.31 123.91 110.13H123.92Z" fill="#20319D"/>
<path d="M91.62 49.51C90.6 48.89 89.55 48.27 88.44 47.65C64.34 34.11 36.18 25.37 13.43 9.8C8.85 6.66 4.81 4.17 0 0L0.410004 9.06999L0.459999 10C2 26.31 5.88 34.56 20.43 42.58C36.74 51.57 55.48 56.21 73.08 62.44C78.05 56.72 84.4 52.24 91.61 49.51H91.62Z" fill="#00F889"/>
<path d="M68.1402 69.3203C51.2102 63.7903 33.8102 59.3603 18.5702 50.0403C17.6302 49.4603 15.8202 48.4004 14.1902 47.3104C12.3602 46.0904 10.7402 44.8604 10.7402 44.8604C11.5102 54.3204 11.2202 64.1503 17.6302 71.8803C25.7402 81.6703 43.5202 85.1204 62.0102 88.4604C62.6302 81.5204 64.7902 75.0303 68.1402 69.3203Z" fill="#00F889"/>
<path d="M62.0707 97.5001C49.9607 95.1801 38.3607 92.9101 29.9707 89.1301C27.0007 87.7901 23.3207 86.0001 21.4707 84.6201C21.4707 84.6801 21.4707 90.3201 21.7007 92.7701C22.0007 96.1601 22.7507 98.8401 23.5907 100.61C28.1307 110.24 38.9607 112.22 48.4707 114.03C55.0007 115.27 61.7707 115.99 68.5707 116.67C65.0907 110.98 62.8007 104.48 62.0707 97.5101V97.5001Z" fill="#00F889"/>
<path d="M65.6403 98.86C62.7003 78.75 72.6703 59.73 89.3003 50.21C70.1303 58.43 58.1003 78.76 61.2603 100.37C65.0303 126.14 88.9803 143.98 114.75 140.21C115.65 140.08 116.53 139.92 117.41 139.74C92.2103 142 69.3503 124.19 65.6403 98.8499V98.86Z" fill="#00F889"/>
<path d="M157.141 129.89V119.37L200.511 67.0795L202.511 72.9895H157.941V59.7695H216.941V70.2895L173.671 122.58L171.671 116.67H218.451V129.89H157.151H157.141Z" fill="#20319D"/>
<path d="M235.562 68.4893C232.692 68.4893 230.352 67.6593 228.552 65.9893C226.752 64.3193 225.852 62.2494 225.852 59.7794C225.852 57.3094 226.752 55.2393 228.552 53.5693C230.352 51.8993 232.692 51.0693 235.562 51.0693C238.432 51.0693 240.772 51.8593 242.572 53.4193C244.372 54.9893 245.272 57.0093 245.272 59.4793C245.272 62.0793 244.382 64.2393 242.622 65.9393C240.852 67.6393 238.502 68.4893 235.562 68.4893ZM227.752 129.889V75.9993H243.382V129.889H227.752Z" fill="#20319D"/>
<path d="M257.9 129.889V55.5693H273.52V129.889H257.9Z" fill="#20319D"/>
<path d="M296.5 129.889V59.7793H326.45C336.2 59.7793 343.78 62.0293 349.19 66.5393C354.6 71.0493 357.3 77.2693 357.3 85.2193C357.3 90.4293 356.06 94.9193 353.59 98.6893C351.12 102.459 347.61 105.349 343.07 107.349C338.53 109.349 333.12 110.349 326.84 110.349H305.51L312.72 103.239V129.879H296.49L296.5 129.889ZM312.72 105.049L305.51 97.4393H325.94C330.95 97.4393 334.69 96.3593 337.16 94.1893C339.63 92.0193 340.87 89.0293 340.87 85.2293C340.87 81.4293 339.63 78.3493 337.16 76.2193C334.69 74.0793 330.95 73.0093 325.94 73.0093H305.51L312.72 65.2993V105.059V105.049ZM341.07 129.889L323.54 104.449H340.87L358.6 129.889H341.07Z" fill="#20319D"/>
<path d="M395.76 130.689C389.62 130.689 384.22 129.489 379.58 127.079C374.94 124.679 371.35 121.389 368.81 117.209C366.27 113.039 365 108.279 365 102.939C365 97.5995 366.25 92.7395 368.76 88.5695C371.26 84.3995 374.69 81.1195 379.03 78.7495C383.37 76.3795 388.28 75.1895 393.75 75.1895C399.22 75.1895 403.78 76.3095 408.02 78.5495C412.26 80.7895 415.62 83.9895 418.09 88.1695C420.56 92.3395 421.8 97.3295 421.8 103.139C421.8 103.739 421.77 104.429 421.7 105.189C421.63 105.959 421.57 106.679 421.5 107.339H377.73V98.2295H413.29L407.28 100.929C407.28 98.1295 406.71 95.6895 405.58 93.6195C404.44 91.5495 402.88 89.9295 400.87 88.7595C398.87 87.5895 396.53 87.0095 393.86 87.0095C391.19 87.0095 388.83 87.5895 386.8 88.7595C384.76 89.9295 383.18 91.5595 382.04 93.6695C380.9 95.7695 380.34 98.2595 380.34 101.129V103.529C380.34 106.469 380.99 109.059 382.29 111.289C383.59 113.529 385.43 115.229 387.8 116.399C390.17 117.569 392.96 118.149 396.16 118.149C399.03 118.149 401.55 117.719 403.72 116.849C405.89 115.979 407.88 114.679 409.68 112.939L417.99 121.949C415.52 124.749 412.41 126.909 408.67 128.409C404.93 129.909 400.62 130.659 395.75 130.659L395.76 130.689Z" fill="#20319D"/>
<path d="M432.221 129.889V75.9992H447.141V90.7192L444.341 86.4092C446.211 82.7392 448.861 79.9492 452.301 78.0492C455.741 76.1492 459.661 75.1992 464.071 75.1992C469.011 75.1992 473.341 76.4492 477.041 78.9592C480.741 81.4692 483.201 85.2892 484.401 90.4292L478.891 88.9292C480.691 84.7192 483.581 81.3892 487.561 78.9092C491.531 76.4392 496.091 75.1992 501.231 75.1992C505.501 75.1992 509.291 76.0492 512.601 77.7492C515.901 79.4492 518.511 82.0592 520.411 85.5592C522.311 89.0592 523.261 93.5592 523.261 99.0292V129.879H507.631V101.429C507.631 97.0892 506.731 93.8892 504.931 91.8092C503.131 89.7392 500.591 88.7092 497.321 88.7092C495.051 88.7092 493.011 89.2292 491.211 90.2592C489.411 91.2992 488.001 92.8492 487.001 94.9192C486.001 96.9892 485.501 99.6292 485.501 102.829V129.869H469.871V101.419C469.871 97.0792 468.981 93.8792 467.221 91.7992C465.451 89.7292 462.931 88.6992 459.661 88.6992C457.391 88.6992 455.351 89.2192 453.551 90.2492C451.751 91.2892 450.341 92.8392 449.341 94.9092C448.341 96.9792 447.841 99.6192 447.841 102.819V129.859H432.221V129.889Z" fill="#20319D"/>
<path d="M545.101 68.4893C542.231 68.4893 539.891 67.6593 538.091 65.9893C536.291 64.3193 535.391 62.2494 535.391 59.7794C535.391 57.3094 536.291 55.2393 538.091 53.5693C539.891 51.8993 542.231 51.0693 545.101 51.0693C547.971 51.0693 550.311 51.8593 552.111 53.4193C553.911 54.9893 554.811 57.0093 554.811 59.4793C554.811 62.0793 553.921 64.2393 552.161 65.9393C550.391 67.6393 548.041 68.4893 545.101 68.4893ZM537.291 129.889V75.9993H552.911V129.889H537.291Z" fill="#20319D"/>
<path d="M561.031 88.0191V75.9991H598.391V88.0191H561.031ZM589.471 130.689C583.131 130.689 578.181 129.069 574.651 125.829C571.111 122.589 569.341 117.769 569.341 111.359V64.0791H584.961V111.159C584.961 113.429 585.561 115.179 586.761 116.419C587.961 117.659 589.601 118.269 591.671 118.269C594.141 118.269 596.241 117.599 597.981 116.269L602.191 127.289C600.591 128.429 598.671 129.279 596.431 129.839C594.191 130.409 591.871 130.689 589.471 130.689Z" fill="#20319D"/>
<path d="M413.6 170.45V168.4L421.33 158.43H413.71V155.71H425.37V157.76L417.64 167.79H425.58V170.45H413.6Z" fill="#20319D"/>
<path d="M427.98 158.48C427.52 158.48 427.11 158.33 426.8 158.02C426.49 157.71 426.34 157.3 426.34 156.84C426.34 156.38 426.49 155.97 426.8 155.66C427.11 155.35 427.52 155.2 427.98 155.2C428.44 155.2 428.85 155.35 429.16 155.66C429.47 155.97 429.62 156.38 429.62 156.84C429.62 157.3 429.47 157.71 429.16 158.02C428.85 158.28 428.44 158.48 427.98 158.48ZM426.5 159.55H429.52V170.5H426.5V159.55Z" fill="#20319D"/>
<path d="M434.17 155.15H431.15V170.45H434.17V155.15Z" fill="#20319D"/>
<path d="M440.16 170.45V155.71H444.35L448.75 166.1H448.8L453.15 155.71H457.35V170.45H454.28V160.06H454.23L449.98 170.45H447.32L443.12 160.06H443.07V170.45H440.16Z" fill="#20319D"/>
<path d="M464.511 170.7C463.331 170.7 462.261 170.44 461.391 169.98C460.521 169.52 459.801 168.85 459.341 167.98C458.881 167.11 458.621 166.14 458.621 164.96C458.621 163.78 458.881 162.81 459.341 161.94C459.801 161.07 460.521 160.46 461.391 160C462.261 159.54 463.331 159.28 464.511 159.28C465.691 159.28 466.711 159.54 467.631 160C468.501 160.46 469.161 161.13 469.681 161.94C470.141 162.81 470.401 163.78 470.401 164.96C470.401 166.14 470.141 167.11 469.681 167.98C469.221 168.85 468.551 169.51 467.631 169.98C466.761 170.44 465.741 170.7 464.511 170.7ZM464.511 168.04C465.431 168.04 466.101 167.78 466.611 167.22C467.071 166.66 467.331 165.94 467.331 164.97C467.331 164 467.071 163.28 466.611 162.72C466.101 162.16 465.431 161.9 464.511 161.9C463.591 161.9 462.871 162.16 462.411 162.72C461.901 163.28 461.691 164 461.691 164.97C461.691 165.94 461.951 166.66 462.411 167.22C462.871 167.78 463.591 168.04 464.511 168.04Z" fill="#20319D"/>
<path d="M472.08 170.45V162.52H470.6V159.55H473.67V161.34H474.44C474.85 160.73 475.41 160.21 476.03 159.86C476.7 159.5 477.46 159.35 478.43 159.35C479.96 159.35 481.14 159.76 481.96 160.58C482.78 161.4 483.19 162.52 483.19 163.91V170.46H480.17V164.47C480.17 163.65 479.97 163.04 479.5 162.63C479.09 162.22 478.43 162.02 477.61 162.02C476.79 162.02 476.18 162.22 475.72 162.63C475.31 163.04 475.05 163.65 475.05 164.47V170.46H472.08V170.45Z" fill="#20319D"/>
<path d="M489.84 170.7C488.66 170.7 487.64 170.44 486.77 169.98C485.9 169.52 485.24 168.85 484.72 167.98C484.26 167.11 484 166.09 484 164.96C484 163.83 484.26 162.81 484.72 161.94C485.18 161.12 485.85 160.46 486.72 160C487.59 159.54 488.61 159.33 489.74 159.33C490.87 159.33 491.84 159.53 492.71 160C493.53 160.46 494.14 161.07 494.6 161.89C495.06 162.71 495.27 163.68 495.27 164.81V165.83H486.93C487.03 166.65 487.34 167.26 487.85 167.67C488.36 168.08 489.03 168.28 489.79 168.28C490.46 168.28 490.97 168.18 491.32 167.97C491.67 167.76 491.99 167.41 492.14 166.95H495.16C494.9 168.13 494.34 169.05 493.37 169.71C492.5 170.32 491.32 170.68 489.84 170.68M487.02 163.8H492.34C492.24 163.08 491.98 162.57 491.52 162.27C491.06 161.91 490.5 161.76 489.73 161.76C489.01 161.76 488.4 161.91 487.94 162.27C487.48 162.58 487.17 163.09 487.02 163.8Z" fill="#20319D"/>
<path d="M496.18 174.85V172.45H498.58L499.45 170.4L494.74 159.55H497.96L501.03 166.92H501.08L504.05 159.55H507.17L502.46 170.5L501.59 172.6C501.28 173.32 500.92 173.88 500.52 174.29C500.11 174.7 499.5 174.9 498.68 174.9H496.17V174.85H496.18Z" fill="#20319D"/>
<path d="M384.9 145.63C385.82 146.4 386.54 146.86 387.41 147.47C391.66 150.39 396.98 152.02 401.48 154.58C403.83 155.91 405.11 157.14 405.83 159.85C406.03 160.57 406.24 161.44 406.14 162.2C404.66 159.74 402.1 158.67 399.54 157.7C395.96 156.37 392.07 155.5 388.74 153.66C386.03 152.18 385.26 150.59 385.01 147.52V147.37L384.91 145.63H384.9Z" fill="#00F889"/>
<path d="M406.999 166.76C406.999 166.76 406.489 166.04 406.279 165.79C402.699 161.54 391.439 162.98 388.219 159.09C386.989 157.66 387.089 155.82 386.939 154.02C386.939 154.02 387.249 154.22 387.609 154.48C387.919 154.68 388.279 154.89 388.429 154.99C392.059 157.19 396.309 157.96 400.249 159.49C403.519 160.82 406.899 162.76 406.999 166.76Z" fill="#00F889"/>
<path d="M388.939 161.49C389.299 161.75 389.959 162.1 390.529 162.36C394.729 164.25 403.269 164.15 406.389 167.58C407.109 168.35 407.459 169.42 407.619 170.45C407.619 170.45 406.439 169.63 406.029 169.43C402.449 167.49 397.949 167.79 393.959 167.03C392.169 166.67 390.119 166.31 389.299 164.52C389.149 164.21 388.989 163.7 388.939 163.04C388.939 162.58 388.939 161.51 388.939 161.51" fill="#00F889"/>
<path d="M252.15 170.96V155.66H258.89C259.13 155.66 259.32 155.72 259.5 155.72C260.35 155.84 261.08 156.15 261.63 156.57C262.18 157 262.6 157.6 262.91 158.27C263.22 158.94 263.34 159.73 263.34 160.52C263.34 161.37 263.22 162.1 262.91 162.77C262.6 163.44 262.18 163.98 261.63 164.47C261.08 164.9 260.35 165.2 259.5 165.32C259.32 165.32 259.07 165.38 258.89 165.38H254.4V170.84H252.15V170.96ZM254.33 163.37H258.7C258.88 163.37 259.06 163.31 259.19 163.31C259.62 163.19 259.98 163.01 260.28 162.7C260.58 162.39 260.77 162.09 260.89 161.73C261.01 161.37 261.07 161 261.07 160.58C261.07 160.22 261.01 159.85 260.89 159.49C260.77 159.13 260.59 158.76 260.28 158.52C259.97 158.28 259.61 158.03 259.19 157.91C259.01 157.85 258.89 157.85 258.7 157.85H254.33V163.38V163.37Z" fill="#7F7F7F"/>
<path d="M271.34 171.26C270.19 171.26 269.21 171.02 268.36 170.47C267.51 169.92 266.84 169.26 266.42 168.34C266 167.42 265.75 166.4 265.75 165.18C265.75 163.96 265.99 162.93 266.48 162.02C266.97 161.11 267.57 160.38 268.42 159.89C269.27 159.4 270.24 159.1 271.4 159.1C272.56 159.1 273.53 159.34 274.38 159.89C275.23 160.44 275.9 161.1 276.32 162.02C276.74 162.94 276.99 163.96 276.99 165.18C276.99 166.4 276.75 167.43 276.32 168.34C275.83 169.25 275.23 169.98 274.38 170.47C273.47 171.02 272.44 171.26 271.34 171.26ZM271.34 169.2C272.43 169.2 273.28 168.84 273.83 168.11C274.38 167.38 274.62 166.41 274.62 165.26C274.62 164.05 274.32 163.13 273.77 162.41C273.22 161.69 272.43 161.32 271.34 161.32C270.61 161.32 270 161.5 269.52 161.81C269.03 162.17 268.67 162.6 268.43 163.21C268.19 163.82 268.07 164.49 268.07 165.27C268.07 166.48 268.37 167.46 268.92 168.18C269.47 168.85 270.26 169.21 271.35 169.21L271.34 169.2Z" fill="#7F7F7F"/>
<path d="M282.331 170.96L278.811 159.479H281.001L283.431 167.37L285.861 159.479H287.741L290.171 167.37L292.601 159.479H294.791L291.271 170.96H289.511L286.781 162.639L284.111 170.96H282.351H282.331Z" fill="#7F7F7F"/>
<path d="M302.3 171.259C301.15 171.259 300.17 171.02 299.32 170.53C298.47 170.04 297.8 169.319 297.32 168.469C296.83 167.559 296.59 166.53 296.59 165.37C296.59 164.09 296.83 163 297.32 162.09C297.81 161.18 298.47 160.45 299.26 159.96C300.11 159.47 301.08 159.229 302.17 159.229C303.32 159.229 304.36 159.47 305.15 160.02C306 160.57 306.61 161.359 306.97 162.329C307.4 163.299 307.52 164.519 307.46 165.909H305.21V164.999C305.21 163.659 304.97 162.69 304.42 162.02C303.87 161.35 303.21 161.049 302.17 161.049C301.08 161.049 300.23 161.409 299.68 162.079C299.13 162.809 298.83 163.78 298.83 165.12C298.83 166.46 299.13 167.37 299.68 168.03C300.23 168.7 301.08 169.06 302.11 169.06C302.78 169.06 303.39 168.879 303.93 168.569C304.47 168.259 304.84 167.779 305.14 167.229L307.33 167.9C306.9 168.93 306.24 169.72 305.33 170.27C304.42 170.94 303.45 171.24 302.29 171.24L302.3 171.259ZM298.23 165.859V164.099H306.43V165.859H298.23Z" fill="#7F7F7F"/>
<path d="M310.92 170.96V159.48H312.92V162.27L312.62 161.91C312.74 161.55 312.92 161.18 313.17 160.88C313.42 160.58 313.66 160.33 313.96 160.09C314.26 159.85 314.57 159.73 314.93 159.6C315.29 159.48 315.66 159.42 316.02 159.42C316.38 159.42 316.75 159.42 317.11 159.48V161.54C316.75 161.42 316.32 161.42 315.83 161.48C315.34 161.54 314.98 161.66 314.55 161.91C314.19 162.15 313.88 162.46 313.7 162.76C313.52 163.06 313.34 163.49 313.27 163.85C313.15 164.28 313.15 164.7 313.15 165.13V170.9H310.9V170.96H310.92Z" fill="#7F7F7F"/>
<path d="M325.011 171.259C323.861 171.259 322.881 171.02 322.031 170.53C321.181 170.04 320.511 169.319 320.031 168.469C319.541 167.559 319.301 166.53 319.301 165.37C319.301 164.09 319.541 163 320.031 162.09C320.521 161.18 321.181 160.45 321.971 159.96C322.821 159.47 323.791 159.229 324.881 159.229C326.031 159.229 327.071 159.47 327.861 160.02C328.711 160.57 329.321 161.359 329.681 162.329C330.111 163.299 330.231 164.519 330.171 165.909H327.921V164.999C327.921 163.659 327.681 162.69 327.131 162.02C326.581 161.35 325.921 161.049 324.881 161.049C323.791 161.049 322.941 161.409 322.391 162.079C321.841 162.809 321.541 163.78 321.541 165.12C321.541 166.46 321.841 167.37 322.391 168.03C322.941 168.7 323.791 169.06 324.821 169.06C325.491 169.06 326.101 168.879 326.641 168.569C327.181 168.259 327.551 167.779 327.851 167.229L330.041 167.9C329.611 168.93 328.951 169.72 328.041 170.27C327.131 170.94 326.101 171.24 325.001 171.24L325.011 171.259ZM320.881 165.859V164.099H329.081V165.859H320.881Z" fill="#7F7F7F"/>
<path d="M338.12 171.26C337.03 171.26 336.12 171.02 335.33 170.47C334.54 169.92 333.93 169.19 333.51 168.28C333.09 167.37 332.9 166.34 332.9 165.18C332.9 164.02 333.14 162.99 333.57 162.08C334 161.17 334.6 160.44 335.39 159.89C336.18 159.34 337.09 159.1 338.18 159.1C339.27 159.1 340.18 159.34 340.91 159.89C341.64 160.44 342.19 161.17 342.61 162.08C342.97 162.99 343.16 164.02 343.16 165.18C343.16 166.34 342.98 167.37 342.61 168.28C342.24 169.19 341.64 169.92 340.91 170.47C340.12 171.02 339.21 171.26 338.12 171.26ZM338.43 169.26C339.16 169.26 339.77 169.08 340.19 168.71C340.68 168.35 340.98 167.86 341.22 167.25C341.46 166.64 341.52 165.91 341.52 165.12C341.52 164.33 341.4 163.6 341.22 162.99C340.98 162.38 340.67 161.9 340.25 161.59C339.82 161.23 339.22 161.1 338.55 161.1C337.82 161.1 337.21 161.28 336.73 161.65C336.25 162.02 335.88 162.5 335.7 163.11C335.46 163.72 335.34 164.39 335.34 165.17C335.34 165.9 335.46 166.63 335.7 167.23C335.94 167.84 336.31 168.32 336.73 168.69C337.16 169.05 337.76 169.24 338.43 169.24V169.26ZM341.59 170.96V162.7H341.35V155.66H343.6V170.96H341.6H341.59Z" fill="#7F7F7F"/>
<path d="M352.76 170.96V155.66H355.01V162.7H354.77V170.96H352.77H352.76ZM358.16 171.26C357.07 171.26 356.16 171.02 355.43 170.47C354.7 169.92 354.09 169.19 353.73 168.28C353.37 167.37 353.18 166.34 353.18 165.18C353.18 164.02 353.36 162.99 353.73 162.08C354.09 161.17 354.64 160.44 355.43 159.89C356.22 159.34 357.07 159.1 358.16 159.1C359.25 159.1 360.16 159.34 360.95 159.89C361.74 160.44 362.35 161.17 362.77 162.08C363.19 162.99 363.38 164.02 363.38 165.18C363.38 166.34 363.2 167.37 362.77 168.28C362.34 169.19 361.74 169.92 360.95 170.47C360.1 171.02 359.19 171.26 358.16 171.26ZM357.86 169.26C358.59 169.26 359.14 169.08 359.62 168.71C360.11 168.35 360.41 167.86 360.65 167.25C360.89 166.64 361.01 165.97 361.01 165.19C361.01 164.46 360.89 163.73 360.65 163.13C360.41 162.52 360.04 162.04 359.62 161.67C359.13 161.31 358.53 161.12 357.8 161.12C357.13 161.12 356.52 161.3 356.1 161.61C355.67 161.97 355.31 162.4 355.13 163.01C354.89 163.62 354.83 164.35 354.83 165.14C354.83 165.93 354.95 166.66 355.13 167.27C355.37 167.88 355.68 168.36 356.16 168.73C356.52 169.09 357.13 169.28 357.86 169.28V169.26Z" fill="#7F7F7F"/>
<path d="M367.51 176.06L369.76 169.99L369.82 171.75L364.84 159.42H367.15L370.91 168.95H370.24L373.82 159.42H376.07L369.76 176H367.51V176.06Z" fill="#7F7F7F"/>
</svg>
