<?xml version="1.0" encoding="UTF-8"?>
<svg id="Layer_1" data-name="Layer 1" xmlns="http://www.w3.org/2000/svg" viewBox="0 0 32 32">
  <defs>
    <style>
      .cls-1 {
        fill: #00f889;
      }

      .cls-2 {
        fill: #20319d;
      }
    </style>
  </defs>
  <path class="cls-2" d="M16.26,20.97h4.19c.02,1.27.15,2.47.39,3.57-.99.26-1.91.62-2.71,1.1-1.1-1.27-1.78-2.88-1.87-4.66h0ZM18.13,15.56c.79.47,1.72.84,2.71,1.1-.24,1.1-.37,2.3-.39,3.57h-4.19c.09-1.78.77-3.39,1.87-4.66h0ZM31.59,20.22h-4.19c-.02-1.27-.15-2.49-.39-3.57.99-.26,1.91-.62,2.71-1.07,1.1,1.27,1.78,2.88,1.87,4.66h0v-.02ZM21.18,20.22c.02-1.2.15-2.36.37-3.42.77.15,1.57.21,2.36.21s1.59-.09,2.36-.24c.21,1.03.34,2.19.37,3.42h-5.48l.02.02ZM26.65,20.97c-.02,1.2-.15,2.38-.37,3.42-.77-.15-1.57-.24-2.36-.24s-1.59.09-2.36.21c-.21-1.03-.34-2.19-.37-3.42h5.48l-.02.02ZM26.85,15.92c-.11-.41-.24-.79-.37-1.16-.26-.69-.58-1.27-.92-1.68,1.4.3,2.64.97,3.63,1.91-.69.39-1.48.69-2.34.9h0v.02ZM25.77,15.04c.13.32.24.67.34,1.05-.73.13-1.46.21-2.19.21s-1.48-.06-2.19-.21c.11-.37.21-.73.34-1.05.52-1.35,1.2-2.13,1.85-2.13s1.33.77,1.85,2.13h0ZM21.37,14.76c-.13.37-.26.75-.37,1.16-.86-.21-1.63-.54-2.34-.92.99-.95,2.26-1.61,3.63-1.91-.34.43-.67.99-.92,1.68h0ZM21,25.25c.11.41.24.79.37,1.16.26.69.58,1.27.92,1.68-1.4-.3-2.64-.97-3.63-1.91.69-.39,1.48-.71,2.34-.92h0ZM22.06,26.15c-.13-.32-.24-.69-.34-1.05.71-.13,1.46-.21,2.19-.21s1.48.06,2.19.21c-.11.37-.21.73-.34,1.05-.52,1.35-1.2,2.13-1.85,2.13s-1.33-.77-1.85-2.13h0ZM26.46,26.41c.13-.37.26-.75.37-1.16.86.21,1.65.54,2.34.9-.99.95-2.26,1.61-3.63,1.91.34-.43.67-.99.92-1.68h0v.02ZM27.02,24.54c.24-1.1.37-2.32.39-3.57h4.19c-.09,1.78-.77,3.39-1.87,4.66-.77-.47-1.7-.84-2.71-1.07h0v-.02Z"/>
  <g>
    <path class="cls-1" d="M20.08,11.52c-.21-.13-.45-.26-.69-.41C14.22,8.21,8.16,6.32,3.28,2.99,2.3,2.31,1.44,1.77.41.89H.41l.09,1.95v.19c.34,3.5,1.18,5.28,4.3,7,3.5,1.93,7.54,2.92,11.3,4.27,1.07-1.22,2.43-2.19,3.97-2.77h0l.02-.02Z"/>
    <path class="cls-1" d="M15.03,15.77c-3.63-1.18-7.37-2.15-10.65-4.15-.19-.13-.6-.34-.95-.58-.39-.26-.73-.52-.73-.52.17,2.04.11,4.15,1.48,5.8,1.74,2.1,5.56,2.84,9.54,3.57.13-1.48.6-2.88,1.31-4.1h0v-.02Z"/>
    <path class="cls-1" d="M13.72,21.83c-2.6-.49-5.09-.99-6.89-1.8-.64-.28-1.42-.67-1.83-.97,0,0,0,1.22.04,1.74.06.73.24,1.31.41,1.68.97,2.06,3.31,2.49,5.35,2.88,1.4.26,2.86.43,4.32.56-.75-1.22-1.25-2.62-1.4-4.12h0v.04Z"/>
    <path class="cls-1" d="M14.5,22.11c-.62-4.32,1.5-8.4,5.09-10.44-4.12,1.76-6.7,6.12-6.01,10.78.82,5.54,5.95,9.36,11.49,8.55.19-.02.39-.06.58-.11-5.41.49-10.33-3.33-11.13-8.78h-.02Z"/>
  </g>
</svg>