<?xml version="1.0" encoding="UTF-8"?>
<svg id="Layer_1" xmlns="http://www.w3.org/2000/svg" version="1.1" viewBox="0 0 38 32">
  <!-- Generator: Adobe Illustrator 29.7.0, SVG Export Plug-In . SVG Version: 2.1.1 Build 138)  -->
  <defs>
    <style>
      .st0 {
        fill: #00f889;
      }

      .st1 {
        fill: #20319d;
      }
    </style>
  </defs>
  <path class="st1" d="M19.3,21.2h4.3c0,1.3.2,2.6.4,3.7-1,.3-2,.6-2.8,1.1-1.1-1.3-1.9-3-1.9-4.8h0ZM21.2,15.6c.8.5,1.8.9,2.8,1.1-.2,1.1-.4,2.4-.4,3.7h-4.3c0-1.8.8-3.5,1.9-4.8h0ZM35.2,20.4h-4.3c0-1.3-.2-2.6-.4-3.7,1-.3,2-.6,2.8-1.1,1.1,1.3,1.9,3,1.9,4.8h0ZM24.4,20.4c0-1.3.2-2.5.4-3.5.8.2,1.6.2,2.5.2s1.7,0,2.5-.2c.2,1.1.4,2.3.4,3.5h-5.7ZM30.1,21.2c0,1.3-.2,2.5-.4,3.5-.8-.2-1.6-.2-2.5-.2s-1.7,0-2.5.2c-.2-1.1-.4-2.3-.4-3.5h5.7ZM30.2,15.9c-.1-.4-.2-.8-.4-1.2-.3-.7-.6-1.3-1-1.7,1.4.3,2.7,1,3.8,2-.7.4-1.5.7-2.4.9h0ZM29.1,15c.1.3.2.7.4,1.1-.7.1-1.5.2-2.3.2s-1.5,0-2.3-.2c.1-.4.2-.8.4-1.1.5-1.4,1.2-2.2,1.9-2.2s1.4.8,1.9,2.2h0ZM24.6,14.7c-.1.4-.3.8-.4,1.2-.9-.2-1.7-.5-2.4-1,1-1,2.3-1.7,3.8-2-.4.4-.7,1-1,1.7h0ZM24.2,25.6c.1.4.2.8.4,1.2.3.7.6,1.3,1,1.7-1.4-.3-2.7-1-3.8-2,.7-.4,1.5-.7,2.4-1h0ZM25.3,26.5c-.1-.3-.2-.7-.4-1.1.7-.1,1.5-.2,2.3-.2s1.5,0,2.3.2c-.1.4-.2.7-.4,1.1-.5,1.4-1.2,2.2-1.9,2.2s-1.4-.8-1.9-2.2h0ZM29.9,26.8c.1-.4.3-.8.4-1.2.9.2,1.7.5,2.4.9-1,1-2.3,1.7-3.8,2,.4-.4.7-1,1-1.7h0ZM30.4,24.9c.2-1.1.4-2.4.4-3.7h4.3c0,1.8-.8,3.5-1.9,4.8-.8-.5-1.8-.9-2.8-1.1h0Z"/>
  <g>
    <path class="st0" d="M29,31.5c-.2,0-.4,0-.6.1-4.4.7-8.6-1.6-10.7-5.3-1.4-.1-2.7-.3-4.1-.5-2.1-.4-4.5-.8-5.5-3-.2-.4-.4-1-.4-1.7,0-.5,0-1.8,0-1.8.4.3,1.2.7,1.9,1,1.8.8,4.3,1.3,6.9,1.8,0-.7,0-1.3,0-2-4-.7-7.9-1.5-9.7-3.7-1.4-1.7-1.4-3.9-1.5-6,0,0,.4.3.8.5.4.2.8.5,1,.6,3.3,2.1,7.2,3,10.9,4.3.3-.5.7-1.1,1.1-1.5-3.9-1.4-8-2.4-11.6-4.4-3.2-1.8-4.1-3.6-4.5-7.3v-.2s0-2,0-2c1.1.9,2,1.5,3,2.2,5.1,3.5,11.3,5.4,16.7,8.4.3.1.5.3.7.4-.3.1-.6.2-.9.4,0,0,0,0,0,0-3.5,2.2-5.5,6.3-4.9,10.6.8,5.6,5.9,9.6,11.5,9.1Z"/>
    <polygon class="st0" points="7.6 19.2 7.6 19.2 7.6 19.2 7.6 19.2"/>
  </g>
</svg>