<?xml version="1.0" encoding="UTF-8"?>
<svg id="Layer_1" xmlns="http://www.w3.org/2000/svg" version="1.1" viewBox="0 0 604.7 178">
  <!-- Generator: Adobe Illustrator 29.7.0, SVG Export Plug-In . SVG Version: 2.1.1 Build 138)  -->
  <defs>
    <style>
      .st0 {
        fill: #00f889;
      }

      .st1 {
        fill: #20319d;
      }

      .st2 {
        fill: #7f7f7f;
      }
    </style>
  </defs>
  <path class="st1" d="M75.4,94.4h19.5c.1,5.9.7,11.5,1.8,16.6-4.6,1.2-8.9,2.9-12.6,5.1-5.1-5.9-8.3-13.4-8.7-21.7h0ZM84.1,69.2c3.7,2.2,8,3.9,12.6,5.1-1.1,5.1-1.7,10.7-1.8,16.6h-19.5c.4-8.3,3.6-15.8,8.7-21.7h0ZM146.8,90.9h-19.5c-.1-5.9-.7-11.6-1.8-16.6,4.6-1.2,8.9-2.9,12.6-5,5.1,5.9,8.3,13.4,8.7,21.7h0ZM98.3,90.9c.1-5.6.7-11,1.7-15.9,3.6.7,7.3,1,11,1s7.4-.4,11-1.1c1,4.8,1.6,10.2,1.7,15.9h-25.5ZM123.8,94.4c-.1,5.6-.7,11.1-1.7,15.9-3.6-.7-7.3-1.1-11-1.1s-7.4.4-11,1c-1-4.8-1.6-10.2-1.7-15.9h25.5ZM124.7,70.9c-.5-1.9-1.1-3.7-1.7-5.4-1.2-3.2-2.7-5.9-4.3-7.8,6.5,1.4,12.3,4.5,16.9,8.9-3.2,1.8-6.9,3.2-10.9,4.2h0ZM119.7,66.8c.6,1.5,1.1,3.1,1.6,4.9-3.4.6-6.8,1-10.2,1s-6.9-.3-10.2-1c.5-1.7,1-3.4,1.6-4.9,2.4-6.3,5.6-9.9,8.6-9.9s6.2,3.6,8.6,9.9h0ZM99.2,65.5c-.6,1.7-1.2,3.5-1.7,5.4-4-1-7.6-2.5-10.9-4.3,4.6-4.4,10.5-7.5,16.9-8.9-1.6,2-3.1,4.6-4.3,7.8h0ZM97.5,114.3c.5,1.9,1.1,3.7,1.7,5.4,1.2,3.2,2.7,5.9,4.3,7.8-6.5-1.4-12.3-4.5-16.9-8.9,3.2-1.8,6.9-3.3,10.9-4.3h0ZM102.4,118.5c-.6-1.5-1.1-3.2-1.6-4.9,3.3-.6,6.8-1,10.2-1s6.9.3,10.2,1c-.5,1.7-1,3.4-1.6,4.9-2.4,6.3-5.6,9.9-8.6,9.9s-6.2-3.6-8.6-9.9h0ZM122.9,119.7c.6-1.7,1.2-3.5,1.7-5.4,4,1,7.7,2.5,10.9,4.2-4.6,4.4-10.5,7.5-16.9,8.9,1.6-2,3.1-4.6,4.3-7.8h0ZM125.5,111c1.1-5.1,1.7-10.8,1.8-16.6h19.5c-.4,8.3-3.6,15.8-8.7,21.7-3.6-2.2-7.9-3.9-12.6-5h0Z"/>
  <g>
    <path class="st0" d="M93.2,50.4c-1-.6-2.1-1.2-3.2-1.9C65.9,35,37.7,26.2,15,10.7,10.4,7.5,6.4,5,1.6.9h0l.4,9.1v.9c1.6,16.3,5.5,24.6,20,32.6,16.3,9,35.1,13.6,52.6,19.9,5-5.7,11.3-10.2,18.5-12.9h0Z"/>
    <path class="st0" d="M69.7,70.2c-16.9-5.5-34.3-10-49.6-19.3-.9-.6-2.8-1.6-4.4-2.7-1.8-1.2-3.4-2.4-3.4-2.4.8,9.5.5,19.3,6.9,27,8.1,9.8,25.9,13.2,44.4,16.6.6-6.9,2.8-13.4,6.1-19.1h0Z"/>
    <g>
      <polygon class="st0" points="23 85.5 23 85.5 23 85.5 23 85.5"/>
      <path class="st0" d="M63.6,98.4c-12.1-2.3-23.7-4.6-32.1-8.4-3-1.3-6.6-3.1-8.5-4.5,0,0,0,5.7.2,8.1.3,3.4,1.1,6.1,1.9,7.8,4.5,9.6,15.4,11.6,24.9,13.4,6.5,1.2,13.3,2,20.1,2.6-3.5-5.7-5.8-12.2-6.5-19.2h0Z"/>
    </g>
    <path class="st0" d="M67.2,99.7c-2.9-20.1,7-39.1,23.7-48.6-19.2,8.2-31.2,28.5-28,50.2,3.8,25.8,27.7,43.6,53.5,39.8.9-.1,1.8-.3,2.7-.5-25.2,2.3-48.1-15.5-51.8-40.9h0Z"/>
  </g>
  <g>
    <path class="st1" d="M158.7,130.8v-10.5l43.4-52.3,2,5.9h-44.6v-13.2h59v10.5l-43.3,52.3-2-5.9h46.8v13.2h-61.3Z"/>
    <path class="st1" d="M237.1,69.4c-2.9,0-5.2-.8-7-2.5-1.8-1.7-2.7-3.7-2.7-6.2s.9-4.5,2.7-6.2c1.8-1.7,4.1-2.5,7-2.5s5.2.8,7,2.4c1.8,1.6,2.7,3.6,2.7,6.1s-.9,4.8-2.6,6.5c-1.8,1.7-4.1,2.5-7.1,2.5h0ZM229.3,130.8v-53.9h15.6v53.9h-15.6Z"/>
    <path class="st1" d="M259.5,130.8V56.4h15.6v74.3h-15.6Z"/>
    <path class="st1" d="M298.1,130.8V60.6h30c9.8,0,17.3,2.2,22.7,6.8s8.1,10.7,8.1,18.7-1.2,9.7-3.7,13.5-6,6.7-10.5,8.7c-4.5,2-10,3-16.2,3h-21.3l7.2-7.1v26.6h-16.2,0ZM314.3,105.9l-7.2-7.6h20.4c5,0,8.8-1.1,11.2-3.2s3.7-5.2,3.7-9-1.2-6.9-3.7-9c-2.5-2.1-6.2-3.2-11.2-3.2h-20.4l7.2-7.7v39.8h0ZM342.6,130.8l-17.5-25.4h17.3l17.7,25.4h-17.5Z"/>
    <path class="st1" d="M397.3,131.6c-6.1,0-11.5-1.2-16.2-3.6-4.6-2.4-8.2-5.7-10.8-9.9-2.5-4.2-3.8-8.9-3.8-14.3s1.2-10.2,3.8-14.4c2.5-4.2,5.9-7.5,10.3-9.8s9.2-3.6,14.7-3.6,10,1.1,14.3,3.4,7.6,5.4,10.1,9.6c2.5,4.2,3.7,9.2,3.7,15s0,1.3,0,2c0,.8-.1,1.5-.2,2.1h-43.8v-9.1h35.6l-6,2.7c0-2.8-.6-5.2-1.7-7.3-1.1-2.1-2.7-3.7-4.7-4.9-2-1.2-4.3-1.8-7-1.8s-5,.6-7.1,1.8c-2,1.2-3.6,2.8-4.8,4.9-1.1,2.1-1.7,4.6-1.7,7.5v2.4c0,2.9.6,5.5,2,7.8,1.3,2.2,3.1,3.9,5.5,5.1,2.4,1.2,5.2,1.8,8.4,1.8s5.4-.4,7.6-1.3,4.2-2.2,6-3.9l8.3,9c-2.5,2.8-5.6,5-9.3,6.5s-8,2.2-12.9,2.2h0Z"/>
    <path class="st1" d="M433.8,130.8v-53.9h14.9v14.7l-2.8-4.3c1.9-3.7,4.5-6.5,8-8.4s7.4-2.9,11.8-2.9,9.3,1.2,13,3.8,6.2,6.3,7.4,11.5l-5.5-1.5c1.8-4.2,4.7-7.5,8.7-10,4-2.5,8.5-3.7,13.7-3.7s8.1.9,11.4,2.5c3.3,1.7,5.9,4.3,7.8,7.8s2.8,8,2.8,13.5v30.9h-15.6v-28.5c0-4.3-.9-7.5-2.7-9.6-1.8-2.1-4.3-3.1-7.6-3.1s-4.3.5-6.1,1.5c-1.8,1-3.2,2.6-4.2,4.7s-1.5,4.7-1.5,7.9v27h-15.6v-28.5c0-4.3-.9-7.5-2.7-9.6-1.8-2.1-4.3-3.1-7.6-3.1s-4.3.5-6.1,1.5c-1.8,1-3.2,2.6-4.2,4.7s-1.5,4.7-1.5,7.9v27h-15.6,0Z"/>
    <path class="st1" d="M546.7,69.4c-2.9,0-5.2-.8-7-2.5s-2.7-3.7-2.7-6.2.9-4.5,2.7-6.2c1.8-1.7,4.1-2.5,7-2.5s5.2.8,7,2.4c1.8,1.6,2.7,3.6,2.7,6.1s-.9,4.8-2.7,6.5c-1.8,1.7-4.1,2.5-7.1,2.5ZM538.8,130.8v-53.9h15.6v53.9h-15.6Z"/>
    <path class="st1" d="M562.6,88.9v-12h37.4v12h-37.4ZM591,131.6c-6.3,0-11.3-1.6-14.8-4.9-3.5-3.2-5.3-8.1-5.3-14.5v-47.3h15.6v47.1c0,2.3.6,4,1.8,5.3,1.2,1.2,2.8,1.9,4.9,1.9s4.6-.7,6.3-2l4.2,11c-1.6,1.1-3.5,2-5.8,2.5-2.2.6-4.6.9-7,.9h0Z"/>
  </g>
  <g>
    <g>
      <polygon class="st1" points="415.2 171.3 415.2 169.3 422.9 159.3 415.3 159.3 415.3 156.6 426.9 156.6 426.9 158.6 419.2 168.7 427.1 168.7 427.1 171.3 415.2 171.3"/>
      <path class="st1" d="M429.5,159.3c-.5,0-.9-.1-1.2-.5s-.5-.7-.5-1.2.2-.9.5-1.2.7-.5,1.2-.5.9.1,1.2.5.5.7.5,1.2-.2.9-.5,1.2c-.3.3-.7.5-1.2.5M428.1,160.4h3v11h-3v-11Z"/>
      <rect class="st1" x="432.7" y="156" width="3" height="15.3"/>
      <polygon class="st1" points="441.7 171.3 441.7 156.6 445.9 156.6 450.3 167 450.4 167 454.7 156.6 458.9 156.6 458.9 171.3 455.8 171.3 455.8 160.9 455.8 160.9 451.5 171.3 448.9 171.3 444.7 160.9 444.6 160.9 444.6 171.3 441.7 171.3"/>
      <path class="st1" d="M466.1,171.6c-1.2,0-2.2-.3-3.1-.7s-1.6-1.1-2-2c-.5-.9-.7-1.8-.7-3s.3-2.1.7-3c.5-.9,1.2-1.5,2-1.9s1.9-.7,3.1-.7,2.2.3,3.1.7c.9.5,1.5,1.1,2,1.9.5.9.7,1.8.7,3s-.3,2.1-.7,3c-.5.9-1.1,1.5-2,2-.9.5-1.9.7-3.1.7M466.1,168.9c.9,0,1.6-.3,2.1-.8.5-.6.7-1.3.7-2.2s-.3-1.7-.7-2.2c-.5-.6-1.2-.8-2.1-.8s-1.6.3-2.1.8c-.5.6-.7,1.3-.7,2.2s.3,1.7.7,2.2,1.2.8,2.1.8"/>
      <path class="st1" d="M473.6,171.3v-7.9h-1.5v-3h3.1v1.8h.8c.4-.6,1-1.1,1.6-1.5.7-.4,1.4-.5,2.4-.5,1.5,0,2.7.4,3.5,1.2s1.2,1.9,1.2,3.3v6.5h-3v-6c0-.8-.2-1.4-.7-1.8-.4-.4-1.1-.6-1.9-.6s-1.4.2-1.9.6c-.4.4-.7,1-.7,1.8v6h-3Z"/>
      <path class="st1" d="M491.4,171.6c-1.2,0-2.2-.3-3.1-.7s-1.5-1.1-2-2c-.5-.9-.7-1.9-.7-3s.3-2.1.7-3c.5-.8,1.1-1.5,2-1.9s1.9-.7,3-.7,2.1.2,3,.7c.8.5,1.4,1.1,1.9,1.9s.7,1.8.7,2.9v1h-8.3c0,.8.4,1.4.9,1.8s1.2.6,1.9.6,1.2-.1,1.5-.3.7-.6.8-1h3c-.3,1.2-.8,2.1-1.8,2.8-.9.6-2,1-3.5,1M488.6,164.7h5.3c0-.7-.4-1.2-.8-1.5-.5-.4-1-.5-1.8-.5s-1.3.1-1.8.5c-.5.3-.8.8-.9,1.5"/>
      <path class="st1" d="M497.7,175.7v-2.4h2.4l.9-2-4.7-10.9h3.2l3.1,7.4h0l3-7.4h3.1l-4.7,11-.9,2.1c-.3.7-.7,1.3-1.1,1.7-.4.4-1,.6-1.8.6h-2.5s0,0,0,0Z"/>
      <path class="st0" d="M386.5,146.5c.9.8,1.6,1.2,2.5,1.8,4.2,2.9,9.6,4.5,14.1,7.1,2.3,1.3,3.6,2.6,4.3,5.3.2.7.4,1.6.3,2.4-1.5-2.5-4-3.5-6.6-4.5-3.6-1.3-7.5-2.2-10.8-4-2.7-1.5-3.5-3.1-3.7-6.1h0c0-.1-.1-1.9-.1-1.9h0Z"/>
      <path class="st0" d="M408.6,167.6s-.5-.7-.7-1c-3.6-4.2-14.8-2.8-18.1-6.7-1.2-1.4-1.1-3.3-1.3-5.1,0,0,.3.2.7.5.3.2.7.4.8.5,3.6,2.2,7.9,3,11.8,4.5,3.3,1.3,6.7,3.3,6.8,7.3"/>
      <path class="st0" d="M390.5,162.4c.4.3,1,.6,1.6.9,4.2,1.9,12.7,1.8,15.9,5.2.7.8,1.1,1.8,1.2,2.9,0,0-1.2-.8-1.6-1-3.6-1.9-8.1-1.6-12.1-2.4-1.8-.4-3.8-.7-4.7-2.5-.1-.3-.3-.8-.4-1.5v-1.5"/>
    </g>
    <path class="st2" d="M253.7,171.8v-15.3h6.7c.2,0,.4,0,.6,0,.9.1,1.6.4,2.1.9.5.4,1,1,1.3,1.7s.4,1.5.4,2.2-.1,1.6-.4,2.2-.7,1.2-1.3,1.7c-.5.4-1.3.7-2.1.9-.2,0-.4,0-.6,0h-4.5v5.5h-2.2q0,.1,0,.1ZM255.9,164.2h4.4c.2,0,.4,0,.5,0,.4-.1.8-.3,1.1-.6s.5-.6.6-1,.2-.7.2-1.1,0-.7-.2-1.1-.3-.7-.6-1-.7-.5-1.1-.6c-.2,0-.3,0-.5,0h-4.4v5.5h0Z"/>
    <path class="st2" d="M272.9,172.1c-1.1,0-2.1-.2-3-.8s-1.5-1.2-1.9-2.1-.7-1.9-.7-3.2.2-2.2.7-3.2,1.1-1.6,1.9-2.1,1.8-.8,3-.8,2.1.2,3,.8,1.5,1.2,1.9,2.1.7,1.9.7,3.2-.2,2.2-.7,3.2c-.5.9-1.1,1.6-1.9,2.1-.9.5-1.9.8-3,.8ZM272.9,170.1c1.1,0,1.9-.4,2.5-1.1s.8-1.7.8-2.9-.3-2.1-.9-2.9-1.3-1.1-2.4-1.1-1.3.2-1.8.5c-.5.4-.9.8-1.1,1.4s-.4,1.3-.4,2.1c0,1.2.3,2.2.9,2.9.5.7,1.3,1,2.4,1h0Z"/>
    <path class="st2" d="M283.9,171.8l-3.5-11.5h2.2l2.4,7.9,2.4-7.9h1.9l2.4,7.9,2.4-7.9h2.2l-3.5,11.5h-1.8l-2.7-8.3-2.7,8.3h-1.8Z"/>
    <path class="st2" d="M303.9,172.1c-1.1,0-2.1-.2-3-.7s-1.5-1.2-2-2.1c-.5-.9-.7-1.9-.7-3.1s.2-2.4.7-3.3c.5-.9,1.1-1.6,1.9-2.1.9-.5,1.8-.7,2.9-.7s2.2.2,3,.8c.9.5,1.5,1.3,1.8,2.3.4,1,.5,2.2.5,3.6h-2.2v-.9c0-1.3-.2-2.3-.8-3s-1.2-1-2.2-1-1.9.4-2.5,1c-.5.7-.9,1.7-.9,3s.3,2.2.9,2.9c.5.7,1.4,1,2.4,1s1.3-.2,1.8-.5.9-.8,1.2-1.3l2.2.7c-.4,1-1.1,1.8-2,2.4-.9.7-1.9,1-3,1h0ZM299.8,166.7v-1.8h8.2v1.8h-8.2Z"/>
    <path class="st2" d="M312.5,171.8v-11.5h2v2.8l-.3-.4c.1-.4.3-.7.5-1s.5-.5.8-.8.6-.4,1-.5c.4-.1.7-.2,1.1-.2s.7,0,1.1,0v2.1c-.4-.1-.8-.1-1.3,0s-.9.2-1.3.4c-.4.2-.7.5-.9.9s-.4.7-.4,1.1c-.1.4-.1.9-.1,1.3v5.8h-2.2c0,0,0,0,0,0Z"/>
    <path class="st2" d="M326.6,172.1c-1.1,0-2.1-.2-3-.7s-1.5-1.2-2-2.1c-.5-.9-.7-1.9-.7-3.1s.2-2.4.7-3.3,1.1-1.6,1.9-2.1c.9-.5,1.8-.7,2.9-.7s2.2.2,3,.8c.9.5,1.5,1.3,1.8,2.3.4,1,.5,2.2.5,3.6h-2.2v-.9c0-1.3-.2-2.3-.8-3s-1.2-1-2.2-1-1.9.4-2.5,1c-.5.7-.9,1.7-.9,3s.3,2.2.9,2.9c.5.7,1.4,1,2.4,1s1.3-.2,1.8-.5.9-.8,1.2-1.3l2.2.7c-.4,1-1.1,1.8-2,2.4-.9.7-1.9,1-3,1h0ZM322.4,166.7v-1.8h8.2v1.8h-8.2Z"/>
    <path class="st2" d="M339.7,172.1c-1.1,0-2-.2-2.8-.8s-1.4-1.3-1.8-2.2-.6-1.9-.6-3.1.2-2.2.7-3.1c.4-.9,1-1.6,1.8-2.2s1.7-.8,2.8-.8,2,.2,2.7.8,1.3,1.3,1.7,2.2c.4.9.5,1.9.5,3.1s-.2,2.2-.5,3.1-1,1.6-1.7,2.2c-.8.5-1.7.8-2.8.8h0ZM340,170.1c.7,0,1.3-.2,1.8-.5.5-.4.8-.9,1-1.5s.3-1.3.3-2.1-.1-1.5-.3-2.1c-.2-.6-.5-1.1-1-1.4-.4-.4-1-.5-1.7-.5s-1.3.2-1.8.5-.9.9-1,1.5c-.2.6-.4,1.3-.4,2.1s.1,1.5.4,2.1c.2.6.6,1.1,1,1.5.4.4,1,.5,1.7.5h0ZM343.1,171.8v-8.3h-.2v-7h2.2v15.3h-2Z"/>
    <path class="st2" d="M354.3,171.8v-15.3h2.2v7h-.2v8.3h-2ZM359.7,172.1c-1.1,0-2-.2-2.7-.8s-1.3-1.3-1.7-2.2-.5-1.9-.5-3.1.2-2.2.5-3.1c.4-.9.9-1.6,1.7-2.2s1.6-.8,2.7-.8,2,.2,2.8.8,1.4,1.3,1.8,2.2.6,1.9.6,3.1-.2,2.2-.6,3.1-1,1.6-1.8,2.2c-.9.5-1.8.8-2.8.8ZM359.4,170.1c.7,0,1.3-.2,1.8-.5.5-.4.8-.9,1-1.5s.4-1.3.4-2.1-.1-1.5-.4-2.1c-.2-.6-.6-1.1-1-1.5-.5-.4-1.1-.5-1.8-.5s-1.3.2-1.7.5c-.4.4-.8.8-1,1.4-.2.6-.3,1.3-.3,2.1s.1,1.5.3,2.1c.2.6.5,1.1,1,1.5.4.4,1,.5,1.7.5h0Z"/>
    <path class="st2" d="M369.1,176.9l2.2-6.1v1.8c0,0-4.9-12.3-4.9-12.3h2.3l3.8,9.5h-.7l3.6-9.5h2.2l-6.3,16.6h-2.2q0,0,0,0Z"/>
  </g>
</svg>