<?xml version="1.0" encoding="UTF-8"?>
<svg id="Layer_1" data-name="Layer 1" xmlns="http://www.w3.org/2000/svg" viewBox="0 0 841.89 595.28">
  <defs>
    <style>
      .cls-1 {
        fill: #00f889;
      }

      .cls-2 {
        fill: #20319d;
      }

      .cls-3 {
        fill: #7f7f7f;
      }
    </style>
  </defs>
  <path class="cls-2" d="M193.71,303.1h19.47c.1,5.89.72,11.55,1.8,16.63-4.59,1.17-8.86,2.88-12.55,5.06-5.11-5.87-8.33-13.42-8.73-21.69ZM202.44,277.96c3.68,2.19,7.96,3.9,12.55,5.06-1.08,5.08-1.7,10.74-1.8,16.63h-19.47c.4-8.28,3.62-15.82,8.73-21.69ZM265.05,299.65h-19.47c-.1-5.9-.72-11.56-1.8-16.64,4.62-1.17,8.92-2.89,12.55-5.05,5.11,5.87,8.33,13.41,8.73,21.69ZM216.63,299.65c.1-5.65.69-11.05,1.72-15.88,3.58.68,7.29,1.04,11.03,1.04s7.43-.37,11.03-1.06c1.03,4.84,1.62,10.24,1.72,15.89h-25.5ZM242.13,303.1c-.1,5.65-.69,11.06-1.72,15.89-3.6-.69-7.33-1.06-11.03-1.06s-7.45.36-11.03,1.04c-1.03-4.83-1.62-10.24-1.72-15.88h25.5ZM242.96,279.64c-.51-1.89-1.08-3.69-1.73-5.35-1.25-3.22-2.7-5.85-4.31-7.81,6.47,1.4,12.29,4.55,16.94,8.93-3.16,1.77-6.91,3.21-10.9,4.23ZM238.02,275.53c.59,1.51,1.11,3.14,1.58,4.86-3.36.64-6.82.98-10.21.98s-6.91-.33-10.22-.95c.47-1.73,1-3.37,1.59-4.89,2.43-6.27,5.57-9.86,8.64-9.86,3.06,0,6.21,3.6,8.64,9.86ZM217.53,274.28c-.65,1.68-1.23,3.49-1.74,5.39-3.96-1.01-7.65-2.46-10.89-4.28,4.65-4.38,10.47-7.53,16.93-8.93-1.6,1.97-3.06,4.59-4.31,7.81ZM215.79,323.07c.51,1.91,1.09,3.72,1.74,5.39,1.25,3.22,2.7,5.85,4.31,7.81-6.46-1.4-12.28-4.55-16.93-8.93,3.23-1.82,6.93-3.27,10.89-4.28ZM220.74,327.22c-.59-1.52-1.12-3.16-1.59-4.89,3.31-.62,6.75-.95,10.22-.95s6.86.34,10.21.98c-.47,1.72-.99,3.35-1.58,4.86-2.43,6.27-5.57,9.86-8.64,9.86-3.06,0-6.21-3.59-8.64-9.86ZM241.23,328.47c.64-1.67,1.22-3.46,1.73-5.35,4,1.02,7.74,2.46,10.9,4.23-4.65,4.38-10.47,7.54-16.94,8.93,1.6-1.97,3.06-4.59,4.31-7.81ZM243.77,319.74c1.08-5.08,1.7-10.75,1.8-16.64h19.47c-.4,8.28-3.62,15.82-8.73,21.69-3.63-2.16-7.93-3.87-12.55-5.05Z"/>
  <g>
    <path class="cls-1" d="M211.47,259.12c-1.02-.62-2.07-1.24-3.18-1.86-24.1-13.54-52.26-22.28-75.01-37.85-4.58-3.14-8.62-5.63-13.43-9.8h0s.41,9.07.41,9.07l.05.93c1.54,16.31,5.42,24.56,19.97,32.58,16.31,8.99,35.05,13.63,52.65,19.86,4.97-5.72,11.32-10.2,18.53-12.93Z"/>
    <path class="cls-1" d="M187.99,278.93c-16.93-5.53-34.33-9.96-49.57-19.28-.94-.58-2.75-1.64-4.38-2.73-1.83-1.22-3.45-2.45-3.45-2.45.77,9.46.48,19.29,6.89,27.02,8.11,9.79,25.89,13.24,44.38,16.58.62-6.94,2.78-13.43,6.13-19.14Z"/>
    <g>
      <polygon class="cls-1" points="141.32 294.23 141.32 294.23 141.32 294.22 141.32 294.23"/>
      <path class="cls-1" d="M181.92,307.11c-12.11-2.32-23.71-4.59-32.1-8.37-2.97-1.34-6.65-3.13-8.5-4.51,0,.06,0,5.7.23,8.15.3,3.39,1.05,6.07,1.89,7.84,4.54,9.63,15.37,11.61,24.88,13.42,6.53,1.24,13.3,1.96,20.1,2.64-3.48-5.69-5.77-12.19-6.5-19.16Z"/>
    </g>
    <path class="cls-1" d="M185.49,308.47c-2.94-20.11,7.03-39.13,23.66-48.65-19.17,8.22-31.2,28.55-28.04,50.16,3.77,25.77,27.72,43.61,53.49,39.84.9-.13,1.78-.29,2.66-.47-25.2,2.26-48.06-15.55-51.77-40.89Z"/>
  </g>
  <g>
    <path class="cls-2" d="M276.99,339.5v-10.52l43.37-52.29,2,5.91h-44.57v-13.22h59v10.52l-43.27,52.29-2-5.91h46.78v13.22h-61.3Z"/>
    <path class="cls-2" d="M355.41,278.1c-2.87,0-5.21-.83-7.01-2.5-1.8-1.67-2.7-3.74-2.7-6.21s.9-4.54,2.7-6.21c1.8-1.67,4.14-2.5,7.01-2.5s5.21.79,7.01,2.35c1.8,1.57,2.7,3.59,2.7,6.06,0,2.6-.89,4.76-2.65,6.46-1.77,1.7-4.12,2.55-7.06,2.55ZM347.6,339.5v-53.89h15.63v53.89h-15.63Z"/>
    <path class="cls-2" d="M377.75,339.5v-74.32h15.62v74.32h-15.62Z"/>
    <path class="cls-2" d="M416.35,339.5v-70.11h29.95c9.75,0,17.33,2.25,22.74,6.76,5.41,4.51,8.11,10.73,8.11,18.68,0,5.21-1.24,9.7-3.71,13.47-2.47,3.77-5.98,6.66-10.52,8.66-4.54,2-9.95,3-16.23,3h-21.33l7.21-7.11v26.64h-16.23ZM432.57,314.66l-7.21-7.61h20.43c5.01,0,8.75-1.08,11.22-3.25,2.47-2.17,3.71-5.16,3.71-8.96s-1.24-6.88-3.71-9.01c-2.47-2.14-6.21-3.21-11.22-3.21h-20.43l7.21-7.71v39.76ZM460.92,339.5l-17.53-25.44h17.33l17.73,25.44h-17.53Z"/>
    <path class="cls-2" d="M515.61,340.3c-6.14,0-11.54-1.2-16.18-3.61-4.64-2.4-8.23-5.69-10.77-9.87-2.54-4.17-3.81-8.93-3.81-14.27s1.25-10.2,3.76-14.37c2.5-4.17,5.93-7.45,10.27-9.82,4.34-2.37,9.25-3.56,14.72-3.56s10.03,1.12,14.27,3.36c4.24,2.24,7.6,5.44,10.07,9.62,2.47,4.17,3.71,9.16,3.71,14.97,0,.6-.03,1.29-.1,2.05-.07.77-.13,1.49-.2,2.15h-43.77v-9.11h35.56l-6.01,2.7c0-2.8-.57-5.24-1.7-7.31-1.14-2.07-2.7-3.69-4.71-4.86-2-1.17-4.34-1.75-7.01-1.75s-5.03.58-7.06,1.75c-2.04,1.17-3.62,2.8-4.76,4.91-1.14,2.1-1.7,4.59-1.7,7.46v2.4c0,2.94.65,5.53,1.95,7.76,1.3,2.24,3.14,3.94,5.51,5.11,2.37,1.17,5.16,1.75,8.36,1.75,2.87,0,5.39-.43,7.56-1.3,2.17-.87,4.16-2.17,5.96-3.91l8.31,9.01c-2.47,2.8-5.58,4.96-9.32,6.46-3.74,1.5-8.05,2.25-12.92,2.25Z"/>
    <path class="cls-2" d="M552.07,339.5v-53.89h14.92v14.72l-2.8-4.31c1.87-3.67,4.52-6.46,7.96-8.36,3.44-1.9,7.36-2.85,11.77-2.85,4.94,0,9.27,1.25,12.97,3.76s6.16,6.33,7.36,11.47l-5.51-1.5c1.8-4.21,4.69-7.54,8.67-10.02,3.97-2.47,8.53-3.71,13.67-3.71,4.27,0,8.06.85,11.37,2.55,3.3,1.7,5.91,4.31,7.81,7.81s2.85,8,2.85,13.47v30.85h-15.63v-28.45c0-4.34-.9-7.54-2.7-9.62-1.8-2.07-4.34-3.1-7.61-3.1-2.27,0-4.31.52-6.11,1.55-1.8,1.04-3.21,2.59-4.21,4.66-1,2.07-1.5,4.71-1.5,7.91v27.04h-15.63v-28.45c0-4.34-.89-7.54-2.65-9.62-1.77-2.07-4.29-3.1-7.56-3.1-2.27,0-4.31.52-6.11,1.55-1.8,1.04-3.21,2.59-4.21,4.66-1,2.07-1.5,4.71-1.5,7.91v27.04h-15.62Z"/>
    <path class="cls-2" d="M664.95,278.1c-2.87,0-5.21-.83-7.01-2.5-1.8-1.67-2.7-3.74-2.7-6.21s.9-4.54,2.7-6.21c1.8-1.67,4.14-2.5,7.01-2.5s5.21.79,7.01,2.35c1.8,1.57,2.7,3.59,2.7,6.06,0,2.6-.89,4.76-2.65,6.46-1.77,1.7-4.12,2.55-7.06,2.55ZM657.14,339.5v-53.89h15.62v53.89h-15.62Z"/>
    <path class="cls-2" d="M680.88,297.63v-12.02h37.36v12.02h-37.36ZM709.32,340.3c-6.34,0-11.29-1.62-14.82-4.86-3.54-3.24-5.31-8.06-5.31-14.47v-47.28h15.62v47.08c0,2.27.6,4.02,1.8,5.26,1.2,1.24,2.84,1.85,4.91,1.85,2.47,0,4.57-.67,6.31-2l4.21,11.02c-1.6,1.14-3.52,1.99-5.76,2.55-2.24.57-4.56.85-6.96.85Z"/>
  </g>
  <g>
    <g>
      <polygon class="cls-2" points="533.45 380.06 533.45 378.01 541.18 368.04 533.56 368.04 533.56 365.32 545.22 365.32 545.22 367.37 537.49 377.4 545.43 377.4 545.43 380.06 533.45 380.06"/>
      <path class="cls-2" d="M547.83,368.09c-.46,0-.87-.15-1.18-.46-.31-.31-.46-.72-.46-1.18s.15-.87.46-1.18c.31-.31.72-.46,1.18-.46s.87.15,1.18.46c.31.31.46.72.46,1.18s-.15.87-.46,1.18c-.31.26-.72.46-1.18.46M546.35,369.16h3.02v10.95h-3.02v-10.95Z"/>
      <rect class="cls-2" x="551" y="364.76" width="3.02" height="15.3"/>
      <polygon class="cls-2" points="560.01 380.06 560.01 365.32 564.2 365.32 568.6 375.71 568.65 375.71 573 365.32 577.2 365.32 577.2 380.06 574.13 380.06 574.13 369.67 574.08 369.67 569.83 380.06 567.17 380.06 562.97 369.67 562.92 369.67 562.92 380.06 560.01 380.06"/>
      <path class="cls-2" d="M584.36,380.31c-1.18,0-2.25-.26-3.12-.72s-1.59-1.13-2.05-2c-.46-.87-.72-1.84-.72-3.02s.26-2.15.72-3.02c.46-.87,1.18-1.48,2.05-1.94s1.94-.72,3.12-.72,2.2.26,3.12.72c.87.46,1.53,1.13,2.05,1.94.46.87.72,1.84.72,3.02s-.26,2.15-.72,3.02c-.46.87-1.13,1.53-2.05,2-.87.46-1.89.72-3.12.72M584.36,377.65c.92,0,1.59-.26,2.1-.82.46-.56.72-1.28.72-2.25s-.26-1.69-.72-2.25c-.51-.56-1.18-.82-2.1-.82s-1.64.26-2.1.82c-.51.56-.72,1.28-.72,2.25s.26,1.69.72,2.25,1.18.82,2.1.82"/>
      <path class="cls-2" d="M591.93,380.06v-7.93h-1.48v-2.97h3.07v1.79h.77c.41-.61.97-1.13,1.59-1.48.67-.36,1.43-.51,2.4-.51,1.53,0,2.71.41,3.53,1.23s1.23,1.94,1.23,3.33v6.55h-3.02v-5.99c0-.82-.2-1.43-.67-1.84-.41-.41-1.07-.61-1.89-.61s-1.43.2-1.89.61c-.41.41-.67,1.02-.67,1.84v5.99h-2.97Z"/>
      <path class="cls-2" d="M609.69,380.31c-1.18,0-2.2-.26-3.07-.72s-1.53-1.13-2.05-2c-.46-.87-.72-1.89-.72-3.02s.26-2.15.72-3.02c.46-.82,1.13-1.48,2-1.94.87-.46,1.89-.67,3.02-.67s2.1.2,2.97.67c.82.46,1.43,1.07,1.89,1.89.46.82.67,1.79.67,2.92v1.02h-8.34c.1.82.41,1.43.92,1.84.51.41,1.18.61,1.94.61.67,0,1.18-.1,1.53-.31s.67-.56.82-1.02h3.02c-.26,1.18-.82,2.1-1.79,2.76-.87.61-2.05.97-3.53.97M606.87,373.41h5.32c-.1-.72-.36-1.23-.82-1.53-.46-.36-1.02-.51-1.79-.51-.72,0-1.33.15-1.79.51-.46.31-.77.82-.92,1.53"/>
      <path class="cls-2" d="M616.03,384.46v-2.4h2.4l.87-2.05-4.71-10.85h3.22l3.07,7.37h.05l2.97-7.37h3.12l-4.71,10.95-.87,2.1c-.31.72-.67,1.28-1.07,1.69-.41.41-1.02.61-1.84.61h-2.51v-.05Z"/>
      <path class="cls-1" d="M504.75,355.24c.92.77,1.64,1.23,2.51,1.84,4.25,2.92,9.57,4.55,14.07,7.11,2.35,1.33,3.63,2.56,4.35,5.27.2.72.41,1.59.31,2.35-1.48-2.46-4.04-3.53-6.6-4.5-3.58-1.33-7.47-2.2-10.8-4.04-2.71-1.48-3.48-3.07-3.73-6.14v-.15l-.1-1.74Z"/>
      <path class="cls-1" d="M526.85,376.37s-.51-.72-.72-.97c-3.58-4.25-14.84-2.81-18.06-6.7-1.23-1.43-1.13-3.27-1.28-5.07,0,0,.31.2.67.46.31.2.67.41.82.51,3.63,2.2,7.88,2.97,11.82,4.5,3.27,1.33,6.65,3.27,6.75,7.27"/>
      <path class="cls-1" d="M508.79,371.1c.36.26,1.02.61,1.59.87,4.2,1.89,12.74,1.79,15.86,5.22.72.77,1.07,1.84,1.23,2.87,0,0-1.18-.82-1.59-1.02-3.58-1.94-8.08-1.64-12.07-2.4-1.79-.36-3.84-.72-4.66-2.51-.15-.31-.31-.82-.36-1.48,0-.46,0-1.53,0-1.53"/>
    </g>
    <path class="cls-3" d="M372,380.57v-15.3h6.74c.24,0,.43.06.61.06.85.12,1.58.43,2.13.85.55.43.97,1.03,1.28,1.7s.43,1.46.43,2.25c0,.85-.12,1.58-.43,2.25s-.73,1.21-1.28,1.7c-.55.43-1.28.73-2.13.85-.18,0-.43.06-.61.06h-4.49v5.46h-2.25v.12ZM374.18,372.98h4.37c.18,0,.36-.06.49-.06.43-.12.79-.3,1.09-.61s.49-.61.61-.97.18-.73.18-1.15c0-.36-.06-.73-.18-1.09-.12-.36-.3-.73-.61-.97s-.67-.49-1.09-.61c-.18-.06-.3-.06-.49-.06h-4.37v5.53Z"/>
    <path class="cls-3" d="M391.19,380.87c-1.15,0-2.13-.24-2.98-.79s-1.52-1.21-1.94-2.13-.67-1.94-.67-3.16.24-2.25.73-3.16,1.09-1.64,1.94-2.13,1.82-.79,2.98-.79,2.13.24,2.98.79,1.52,1.21,1.94,2.13.67,1.94.67,3.16-.24,2.25-.67,3.16c-.49.91-1.09,1.64-1.94,2.13-.91.55-1.94.79-3.04.79ZM391.19,378.81c1.09,0,1.94-.36,2.49-1.09.55-.73.79-1.7.79-2.85,0-1.21-.3-2.13-.85-2.85s-1.34-1.09-2.43-1.09c-.73,0-1.34.18-1.82.49-.49.36-.85.79-1.09,1.4-.24.61-.36,1.28-.36,2.06,0,1.21.3,2.19.85,2.91.55.67,1.34,1.03,2.43,1.03Z"/>
    <path class="cls-3" d="M402.18,380.57l-3.52-11.48h2.19l2.43,7.89,2.43-7.89h1.88l2.43,7.89,2.43-7.89h2.19l-3.52,11.48h-1.76l-2.73-8.32-2.67,8.32h-1.76Z"/>
    <path class="cls-3" d="M422.15,380.87c-1.15,0-2.13-.24-2.98-.73s-1.52-1.21-2-2.06c-.49-.91-.73-1.94-.73-3.1,0-1.28.24-2.37.73-3.28.49-.91,1.15-1.64,1.94-2.13.85-.49,1.82-.73,2.91-.73,1.15,0,2.19.24,2.98.79.85.55,1.46,1.34,1.82,2.31.43.97.55,2.19.49,3.58h-2.25v-.91c0-1.34-.24-2.31-.79-2.98s-1.21-.97-2.25-.97c-1.09,0-1.94.36-2.49,1.03-.55.73-.85,1.7-.85,3.04s.3,2.25.85,2.91c.55.67,1.4,1.03,2.43,1.03.67,0,1.28-.18,1.82-.49s.91-.79,1.21-1.34l2.19.67c-.43,1.03-1.09,1.82-2,2.37-.91.67-1.88.97-3.04.97ZM418.08,375.47v-1.76h8.2v1.76h-8.2Z"/>
    <path class="cls-3" d="M430.77,380.57v-11.48h2v2.79l-.3-.36c.12-.36.3-.73.55-1.03s.49-.55.79-.79.61-.36.97-.49c.36-.12.73-.18,1.09-.18s.73,0,1.09.06v2.06c-.36-.12-.79-.12-1.28-.06-.49.06-.85.18-1.28.43-.36.24-.67.55-.85.85s-.36.73-.43,1.09c-.12.43-.12.85-.12,1.28v5.77h-2.25v.06Z"/>
    <path class="cls-3" d="M444.86,380.87c-1.15,0-2.13-.24-2.98-.73s-1.52-1.21-2-2.06c-.49-.91-.73-1.94-.73-3.1,0-1.28.24-2.37.73-3.28s1.15-1.64,1.94-2.13c.85-.49,1.82-.73,2.91-.73,1.15,0,2.19.24,2.98.79.85.55,1.46,1.34,1.82,2.31.43.97.55,2.19.49,3.58h-2.25v-.91c0-1.34-.24-2.31-.79-2.98s-1.21-.97-2.25-.97c-1.09,0-1.94.36-2.49,1.03-.55.73-.85,1.7-.85,3.04s.3,2.25.85,2.91c.55.67,1.4,1.03,2.43,1.03.67,0,1.28-.18,1.82-.49s.91-.79,1.21-1.34l2.19.67c-.43,1.03-1.09,1.82-2,2.37-.91.67-1.94.97-3.04.97ZM440.73,375.47v-1.76h8.2v1.76h-8.2Z"/>
    <path class="cls-3" d="M457.97,380.87c-1.09,0-2-.24-2.79-.79s-1.4-1.28-1.82-2.19-.61-1.94-.61-3.1.24-2.19.67-3.1c.43-.91,1.03-1.64,1.82-2.19s1.7-.79,2.79-.79,2,.24,2.73.79,1.28,1.28,1.7,2.19c.36.91.55,1.94.55,3.1s-.18,2.19-.55,3.1-.97,1.64-1.7,2.19c-.79.55-1.7.79-2.79.79ZM458.28,378.87c.73,0,1.34-.18,1.76-.55.49-.36.79-.85,1.03-1.46s.3-1.34.3-2.13-.12-1.52-.3-2.13c-.24-.61-.55-1.09-.97-1.4-.43-.36-1.03-.49-1.7-.49-.73,0-1.34.18-1.82.55s-.85.85-1.03,1.46c-.24.61-.36,1.28-.36,2.06,0,.73.12,1.46.36,2.06.24.61.61,1.09,1.03,1.46.43.36,1.03.55,1.7.55ZM461.44,380.57v-8.26h-.24v-7.04h2.25v15.3h-2Z"/>
    <path class="cls-3" d="M472.61,380.57v-15.3h2.25v7.04h-.24v8.26h-2ZM478.01,380.87c-1.09,0-2-.24-2.73-.79s-1.34-1.28-1.7-2.19-.55-1.94-.55-3.1.18-2.19.55-3.1c.36-.91.91-1.64,1.7-2.19s1.64-.79,2.73-.79,2,.24,2.79.79,1.4,1.28,1.82,2.19.61,1.94.61,3.1-.18,2.19-.61,3.1-1.03,1.64-1.82,2.19c-.85.55-1.76.79-2.79.79ZM477.71,378.87c.73,0,1.28-.18,1.76-.55.49-.36.79-.85,1.03-1.46s.36-1.28.36-2.06c0-.73-.12-1.46-.36-2.06-.24-.61-.61-1.09-1.03-1.46-.49-.36-1.09-.55-1.82-.55-.67,0-1.28.18-1.7.49-.43.36-.79.79-.97,1.4-.24.61-.3,1.34-.3,2.13s.12,1.52.3,2.13c.24.61.55,1.09,1.03,1.46.36.36.97.55,1.7.55Z"/>
    <path class="cls-3" d="M487.36,385.67l2.25-6.07.06,1.76-4.98-12.33h2.31l3.76,9.53h-.67l3.58-9.53h2.25l-6.31,16.58h-2.25v.06Z"/>
  </g>
</svg>